<svg width="512" height="512" viewBox="0 0 512 512" fill="none" xmlns="http://www.w3.org/2000/svg">
<rect width="512" height="512" fill="transparent"/>
<g id="cannabis-marijuana-svgrepo-com 1" clip-path="url(#clip0_25_25)">
<g id="Group">
<g id="Group_2">
<path id="Vector" d="M493.045 369.93L517 356.098L493.045 342.267C490.94 341.052 447.061 316.074 388.306 309.571C431.449 260.577 445.81 203.918 446.443 201.358L452.776 175.692L427.11 182.026C424.533 182.662 367.173 197.202 317.971 240.981C318.291 234.664 318.451 228.398 318.451 222.198C318.451 121.326 276.929 40.545 275.161 37.155L261 10L246.839 37.155C245.071 40.545 203.549 121.326 203.549 222.198C203.549 228.398 203.709 234.664 204.029 240.981C154.827 197.202 97.466 182.662 94.89 182.026L69.224 175.692L75.557 201.358C76.189 203.918 90.557 260.58 133.695 309.571C74.94 316.076 31.059 341.053 28.955 342.267L5 356.097L28.955 369.928C31.375 371.326 89.075 404.163 161.096 404.163C163.709 404.163 166.339 404.118 168.983 404.031C152.538 432.491 148.429 459.732 148.208 461.268L145.17 482.387L166.29 479.349C168.213 479.072 210.549 472.679 245.027 443.528V502.38H276.97V443.528C311.448 472.681 353.784 479.074 355.707 479.351L376.827 482.389L373.789 461.27C373.568 459.736 369.461 432.495 353.013 404.033C355.657 404.121 358.288 404.165 360.901 404.165C432.925 404.164 490.625 371.328 493.045 369.93ZM306.553 395.654C307.017 396.1 307.478 396.552 307.931 397.003C321.519 410.591 329.984 427.205 335.099 440.705C321.656 435.614 305.111 427.156 291.444 413.49C285.257 407.303 279.637 399.977 274.738 391.717L261.002 368.553L247.266 391.717C242.366 399.977 236.746 407.303 230.56 413.49C216.997 427.052 200.42 435.512 186.934 440.63C192.052 427.141 200.51 410.568 214.067 397.009C214.525 396.551 214.986 396.1 215.45 395.655L253.638 358.911L201.506 368.434C187.743 370.948 174.149 372.222 161.099 372.222C127.728 372.222 97.348 363.949 76.03 356.098C97.351 348.245 127.732 339.973 161.099 339.973C164.367 339.973 167.776 340.058 171.234 340.226L219.878 342.589L182.08 311.878C176.529 307.368 171.255 302.622 166.405 297.773C142.108 273.475 126.56 244.901 117.421 223.847C138.422 232.952 166.917 248.473 191.311 272.867C198.804 280.36 205.96 288.768 212.579 297.857L253.151 353.564L241.219 285.69C237.42 264.081 235.494 242.718 235.494 222.196C235.494 166.581 249.611 116.724 261.002 85.547C272.395 116.727 286.51 166.581 286.51 222.196C286.51 242.718 284.584 264.081 280.785 285.69L268.852 353.566L309.424 297.859C316.044 288.769 323.2 280.362 330.692 272.869C354.965 248.597 383.506 233.056 404.553 223.914C395.41 244.965 379.871 273.502 355.599 297.775C350.748 302.624 345.474 307.371 339.922 311.882L302.13 342.593L350.77 340.23C354.235 340.062 357.644 339.977 360.905 339.977C394.272 339.977 424.653 348.249 445.973 356.101C424.653 363.954 394.272 372.226 360.905 372.226C347.854 372.226 334.261 370.952 320.498 368.438L268.366 358.915L306.553 395.654Z" fill="#FFFCFC"/>
</g>
</g>
</g>
<defs>
<clipPath id="clip0_25_25">
<rect width="512" height="512" fill="white"/>
</clipPath>
</defs>
</svg>
